# xmcd
#
# Track frame offsets:
#	150
#	14592
#	27121
#	44568
#	56738
#	71300
#	84678
#	100255
#	115177
#	128043
#	140453
#	155274
#	169796
#	184182
#	199204
#	211539
#
# Disc length: 2989
#
# Revision: 1
# Processed by: cddbd v1.5.1PL0 Copyright (c) Steve Scherf et al.
# Submitted via: FreeRIP 2.70 
# Normalized: r0:TRMNUM
#
DISCID=da0bab10
DTITLE=Paul Robeson - Shenandoah
DYEAR=1900
DGENRE=Blues
TTITLE0=Shenandoah
TTITLE1=Swing Low Sweet Chariot
TTITLE2=Ol' Man River
TTITLE3=The Lonesome Road
TTITLE4=Hush-A-Bye Lullaby
TTITLE5=Got The South In My Soul
TTITLE6=St. Louis Blues
TTITLE7=All Through The Night
TTITLE8=Round The Bend Of The Road
TTITLE9=Blue Prelude
TTITLE10=So Shy
TTITLE11=Little Man, You've Had A Busy Day
TTITLE12=Roll Away, The Clouds
TTITLE13=Wagon Wheels
TTITLE14=I Ain't Lazy I'm Just Dreaming
TTITLE15=Carry Me Back To The Green Pastures
EXTD=
EXTT0=
EXTT1=
EXTT2=
EXTT3=
EXTT4=
EXTT5=
EXTT6=
EXTT7=
EXTT8=
EXTT9=
EXTT10=
EXTT11=
EXTT12=
EXTT13=
EXTT14=
EXTT15=
PLAYORDER=
